<?xml version="1.0" encoding="iso-8859-1"?>
<!-- Generator: Adobe Illustrator 17.1.0, SVG Export Plug-In . SVG Version: 6.00 Build 0)  -->
<!DOCTYPE svg PUBLIC "-//W3C//DTD SVG 1.1//EN" "http://www.w3.org/Graphics/SVG/1.1/DTD/svg11.dtd">
<svg version="1.1" id="Capa_1" xmlns="http://www.w3.org/2000/svg" xmlns:xlink="http://www.w3.org/1999/xlink" x="0px" y="0px"
	 viewBox="0 0 526.794 526.794" style="enable-background:new 0 0 526.794 526.794;" xml:space="preserve">
<g fill="#649500">
	<path d="M190.12,183.886c-2.938-7.63-7.911-12.756-19.744-12.756h-73.5c-10.128,0-15.099,5.244-18.045,12.508L42.49,273.198
		c-1.277,3.148-1.713,6.491-1.328,9.774c-8.341,4.797-13.96,13.477-14.025,23.365c-0.005,0.696,0.026,1.387,0.075,2.074
		l-15.529-0.106c-6.199,0-11.277,5.044-11.32,11.244L0,372.375c-0.021,3.015,1.141,5.863,3.269,8.021
		c2.129,2.157,4.961,3.357,7.976,3.377l75.489,0.518v56.778c0,12.085,9.833,21.917,21.919,21.917
		c12.085,0,21.917-9.832,21.917-21.917V332.097h9.643v108.972c0,12.085,9.833,21.917,21.919,21.917
		c12.086,0,21.919-9.832,21.919-21.917V278.893l3.655,9.493c2.856,7.417,9.832,12.417,17.772,12.737
		c0.266,0.011,0.532,0.017,0.799,0.017c2.444,0,4.851-0.448,7.153-1.332c10.241-3.944,15.363-15.485,11.42-25.727L190.12,183.886z
		 M71.459,308.713l-30.7-0.21c-0.107-0.684-0.177-1.374-0.172-2.075c0.031-4.69,2.634-8.84,6.579-11.373
		c1.795,1.718,3.91,3.106,6.282,4.069c2.395,0.971,4.91,1.464,7.476,1.464c0.15,0,0.301-0.002,0.451-0.006
		c2.723-0.061,5.336-0.686,7.724-1.761c1.636,2.246,2.584,4.935,2.564,7.818C71.658,307.346,71.576,308.034,71.459,308.713z
		 M85.833,308.812l-0.824-0.006c0.059-0.685,0.101-1.375,0.106-2.072c0.045-6.529-2.327-12.549-6.312-17.301
		c0.202-0.414,0.394-0.836,0.569-1.268l6.461-15.924V308.812z"/>
	<path d="M136.899,164.134c27.66,0,50.164-22.503,50.164-50.163c0-27.66-22.504-50.163-50.164-50.163
		c-27.653,0-50.15,22.503-50.15,50.163C86.748,141.631,109.245,164.134,136.899,164.134z"/>
	<path d="M526.432,319.549c-0.043-6.2-5.121-11.244-11.399-11.243l-15.45,0.105c0.049-0.688,0.08-1.377,0.075-2.073
		c-0.065-9.975-5.786-18.717-14.248-23.487c0.403-3.312-0.025-6.688-1.314-9.862l-36.342-89.559
		c-2.821-6.956-8.627-12.561-18.856-12.561h-72.61c-11.16,0-16.551,4.945-19.586,12.563l-35.781,89.783
		c-4.064,10.196,0.925,21.796,11.12,25.86c2.364,0.939,4.844,1.415,7.369,1.415c0.188,0,0.377-0.002,0.565-0.008
		c7.944-0.229,14.979-5.148,17.92-12.529l4.825-12.107l-0.227,165.223c0,12.085,9.833,21.917,21.919,21.917
		c12.086,0,21.919-9.832,21.919-21.917V328.005h9.894v113.063c0,12.085,9.832,21.917,21.917,21.917
		c12.086,0,21.919-9.832,21.919-21.917V384.29l75.488-0.518c3.016-0.02,5.848-1.22,7.977-3.377c2.128-2.157,3.289-5.006,3.269-8.021
		L526.432,319.549z M441.784,308.806l-0.801,0.006v-36.206l6.228,15.351c0.216,0.532,0.459,1.048,0.717,1.554
		c-3.947,4.739-6.294,10.729-6.25,17.226C441.684,307.433,441.726,308.122,441.784,308.806z M486.034,308.503l-30.7,0.211
		c-0.117-0.679-0.199-1.367-0.204-2.072c-0.02-2.922,0.952-5.645,2.626-7.907c2.314,1.001,4.833,1.579,7.453,1.639
		c0.15,0.004,0.301,0.006,0.451,0.006c2.565,0,5.081-0.493,7.477-1.464c2.354-0.955,4.452-2.331,6.238-4.031
		c4.09,2.517,6.8,6.752,6.831,11.545C486.211,307.13,486.142,307.821,486.034,308.503z"/>
	<path d="M389.895,164.134c27.653,0,50.15-22.503,50.15-50.163c0-27.66-22.497-50.163-50.15-50.163
		c-27.66,0-50.164,22.503-50.164,50.163C339.731,141.631,362.235,164.134,389.895,164.134z"/>
	<path d="M222.777,178.087h41.382l0.045,8.341c0.015,2.694,1.533,4.505,3.778,4.505c0.863,0,1.766-0.268,2.682-0.796l30.434-17.551
		c1.632-0.94,2.527-2.254,2.52-3.699c-0.008-1.445-0.916-2.749-2.559-3.673l-30.621-17.222c-1.962-1.104-3.944-0.987-5.183,0.258
		c-0.816,0.821-1.244,2.038-1.236,3.52l0.045,8.328h-41.286c-4.968,0-8.994,4.026-8.994,8.994
		C213.782,174.061,217.809,178.087,222.777,178.087z"/>
	<path d="M307.357,216.355c0-4.968-4.026-8.994-8.994-8.994h-41.384l-0.045-8.341c-0.015-2.694-1.533-4.505-3.778-4.505
		c-0.863,0-1.766,0.268-2.682,0.796l-30.434,17.551c-1.632,0.94-2.527,2.254-2.52,3.699s0.916,2.749,2.559,3.673l30.621,17.222
		c0.905,0.509,1.796,0.768,2.645,0.768h0.001c0.991,0,1.869-0.354,2.536-1.025c0.816-0.821,1.244-2.038,1.236-3.52l-0.045-8.328
		h41.288C303.33,225.349,307.357,221.323,307.357,216.355z"/>
</g>
<g>
</g>
<g>
</g>
<g>
</g>
<g>
</g>
<g>
</g>
<g>
</g>
<g>
</g>
<g>
</g>
<g>
</g>
<g>
</g>
<g>
</g>
<g>
</g>
<g>
</g>
<g>
</g>
<g>
</g>
</svg>
