<?xml version="1.0" encoding="UTF-8" standalone="no"?>
<!-- Created with Inkscape (http://www.inkscape.org/) -->

<svg
   xmlns:dc="http://purl.org/dc/elements/1.1/"
   xmlns:cc="http://creativecommons.org/ns#"
   xmlns:rdf="http://www.w3.org/1999/02/22-rdf-syntax-ns#"
   xmlns:svg="http://www.w3.org/2000/svg"
   xmlns="http://www.w3.org/2000/svg"
   xmlns:sodipodi="http://sodipodi.sourceforge.net/DTD/sodipodi-0.dtd"
   xmlns:inkscape="http://www.inkscape.org/namespaces/inkscape"
   width="512"
   height="512"
   viewBox="0 0 511.99999 511.99999"
   id="svg3401"
   version="1.1"
   inkscape:version="0.91 r13725"
   sodipodi:docname="Web Administrable.svg">
  <defs
     id="defs3403" />
  <sodipodi:namedview
     id="base"
     pagecolor="#ffffff"
     bordercolor="#666666"
     borderopacity="1.0"
     inkscape:pageopacity="0.0"
     inkscape:pageshadow="2"
     inkscape:zoom="0.98994949"
     inkscape:cx="222.31275"
     inkscape:cy="253.72653"
     inkscape:document-units="px"
     inkscape:current-layer="layer1"
     showgrid="false"
     fit-margin-top="0"
     fit-margin-left="0"
     fit-margin-right="0"
     fit-margin-bottom="0"
     units="px"
     inkscape:window-width="1366"
     inkscape:window-height="706"
     inkscape:window-x="-8"
     inkscape:window-y="-8"
     inkscape:window-maximized="1" />
  <metadata
     id="metadata3406">
    <rdf:RDF>
      <cc:Work
         rdf:about="">
        <dc:format>image/svg+xml</dc:format>
        <dc:type
           rdf:resource="http://purl.org/dc/dcmitype/StillImage" />
        <dc:title></dc:title>
      </cc:Work>
    </rdf:RDF>
  </metadata>
  <g
     inkscape:label="Capa 1"
     inkscape:groupmode="layer"
     id="layer1"
     transform="translate(-62.879265,-366.0543)"
     style="fill:#649500">
    <path
       d="m 364.83456,761.03957 c -2.51084,-1.63243 -27.55831,-26.53528 -30.05424,-29.8807 -1.38832,-1.86084 -1.6945,-5.93595 -0.60736,-8.08368 0.91441,-1.80649 29.50494,-30.47938 31.38958,-31.48001 3.29539,-1.74965 7.83578,-0.67779 10.27739,2.42621 0.89735,1.1408 1.21178,2.3739 1.21178,4.75234 l 0,3.21181 -7.83366,7.90582 c -4.30851,4.34819 -7.83366,8.0411 -7.83366,8.20646 0,0.59379 9.11384,-0.71675 15.08705,-2.16946 16.59373,-4.03567 30.48977,-11.92802 42.65496,-24.22618 11.64867,-11.77598 19.8343,-26.35618 23.65073,-42.12651 0.65803,-2.71918 1.45066,-5.11219 1.76137,-5.3178 0.31071,-0.20561 1.59499,-0.53854 2.85395,-0.73986 5.28897,-0.84574 11.63911,-5.86316 13.06926,-10.32638 l 0.61079,-1.90615 0.0592,2.73872 c 0.0821,3.79359 -1.49357,14.16031 -3.15562,20.76225 -10.80592,42.92287 -48.73054,75.42135 -92.46625,79.23647 l -4.81969,0.42042 7.22992,7.31856 c 3.97645,4.02521 7.65779,7.96418 8.18076,8.75328 1.32603,2.00083 1.21524,6.24829 -0.22457,8.60987 -1.2582,2.06368 -4.15806,3.59177 -6.81613,3.59177 -0.90522,0 -2.80674,-0.75476 -4.2256,-1.67725 z m -139.04385,-48.6076 c -1.83009,-0.38856 -4.0538,-2.83651 -4.47083,-4.92165 -0.19856,-0.99281 -0.36102,-3.88153 -0.36102,-6.41938 0,-4.32629 -0.10586,-4.72013 -1.69618,-6.31044 -2.51924,-2.51924 -4.96412,-2.3072 -10.55052,0.91504 -4.64136,2.67713 -6.40653,3.07659 -8.79209,1.98966 -1.60958,-0.73338 -1.20799,-0.12397 -9.53155,-14.4639 -8.62101,-14.85237 -8.64444,-15.51085 -0.71484,-20.08464 5.18086,-2.98831 6.58672,-4.63108 6.50261,-7.5984 -0.0719,-2.53645 -1.64698,-4.24229 -6.34087,-6.86726 -1.99221,-1.11411 -4.16033,-2.70978 -4.81804,-3.54593 -2.19911,-2.79571 -1.67313,-4.38419 5.72956,-17.30346 3.80898,-6.64748 7.28123,-12.44214 7.71611,-12.87702 0.43487,-0.43487 1.64693,-1.03625 2.69345,-1.33639 1.69205,-0.48528 2.50925,-0.22749 7.37946,2.32787 5.69939,2.99042 7.00561,3.309 9.12449,2.2254 2.69839,-1.37997 3.27182,-2.81456 3.2855,-8.21958 0.008,-3.06287 0.34193,-5.88348 0.8376,-7.06978 1.47606,-3.5327 2.69987,-3.79166 17.9187,-3.79166 8.18601,0 14.28912,0.24769 15.3677,0.62369 2.79441,0.97413 3.60605,2.75376 3.60975,7.91489 0.005,6.12515 0.77903,8.65584 3.07879,10.0581 2.71522,1.65558 4.13584,1.42194 9.23404,-1.51871 4.75638,-2.74347 7.08557,-3.25316 9.3437,-2.04465 1.54898,0.82899 1.17143,0.25073 9.3175,14.27036 5.26187,9.05582 6.41008,11.44972 6.42817,13.40211 0.028,3.02772 -0.5584,3.69259 -6.33458,7.18157 -4.74577,2.86659 -6.11921,4.48672 -6.11921,7.21836 0,2.05603 2.0029,4.16597 6.38297,6.72407 5.06326,2.95709 6.59262,4.81662 6.20418,7.54352 -0.34837,2.44567 -13.10449,24.68895 -15.22444,26.54739 -2.22061,1.94668 -4.60092,1.66783 -9.26748,-1.0857 -2.25625,-1.33131 -5.109,-2.51808 -6.4357,-2.67732 -2.0387,-0.24467 -2.66107,-0.0375 -4.30734,1.43338 -1.91023,1.70678 -1.92677,1.76665 -2.25915,8.17761 -0.31477,6.07138 -0.43115,6.55456 -1.94283,8.06626 l -1.60801,1.60801 -14.0593,0.0882 c -7.73262,0.0485 -14.62676,-0.0323 -15.3203,-0.17957 z m 21.574,-41.04312 c 8.62761,-3.92508 12.403,-14.57387 8.20734,-23.14948 -3.06518,-6.26501 -9.51578,-9.98862 -16.6248,-9.59669 -16.57809,0.91399 -22.20384,22.77594 -8.17716,31.77683 4.96903,3.18862 10.94873,3.53791 16.59462,0.96934 z m 80.94425,-42.31894 c -3.41036,-1.78136 -4.67096,-2.98281 -6.06515,-5.78061 l -1.47837,-2.9667 0,-24.80915 c 0,-15.87029 0.23104,-25.91708 0.64124,-27.88413 1.70303,-8.16655 7.67987,-15.91514 15.07474,-19.54342 3.03469,-1.48897 5.75906,-2.18342 13.24652,-3.37657 9.24586,-1.47334 9.44634,-1.48105 10.48511,-0.403 0.58246,0.60449 5.41391,13.11067 10.73655,27.79153 5.32264,14.68085 10.08857,27.14942 10.59097,27.70793 1.06961,1.18908 3.00737,1.31719 4.38856,0.29013 0.54374,-0.40432 5.37162,-12.79544 10.90873,-27.99806 5.4633,-15.00001 10.29737,-27.65576 10.74237,-28.12391 1.26017,-1.32572 18.92513,1.67223 23.76365,4.03297 6.47594,3.15964 11.88221,9.51892 14.31427,16.83755 1.18723,3.57265 1.26506,5.04983 1.47437,27.98185 0.24497,26.83978 0.0487,29.05418 -2.89172,32.62139 -3.83161,4.64841 0.15515,4.36046 -60.51598,4.37077 -43.28952,0.007 -54.25216,-0.14073 -55.41586,-0.74857 z M 184.98645,610.08964 c 0.002,-0.46995 0.26581,-2.55174 0.58532,-4.62621 5.26022,-34.15191 26.75641,-63.75628 57.55723,-79.26732 9.83666,-4.95367 23.18811,-9.00261 33.43484,-10.13939 9.55215,-1.05973 9.46432,-0.14052 0.8447,-8.84047 -4.16988,-4.20873 -7.87092,-8.2226 -8.22454,-8.91971 -0.91469,-1.80318 -0.79521,-5.16883 0.25564,-7.20094 1.82079,-3.52101 6.99259,-5.07557 10.59059,-3.18336 0.86181,0.45323 8.38718,7.69936 16.72305,16.10251 16.90105,17.03747 17.0326,17.23362 14.82069,22.09801 -1.34364,2.95489 -29.62856,31.34763 -32.1906,32.3133 -3.67759,1.38615 -7.70638,0.0402 -9.74288,-3.25494 -0.97866,-1.58351 -1.18079,-2.62197 -0.95921,-4.928 0.27496,-2.86149 0.44026,-3.08156 8.0208,-10.67773 4.25703,-4.26581 7.61812,-7.87796 7.46908,-8.02699 -0.50573,-0.50573 -9.51075,0.83175 -15.42531,2.29105 -30.23228,7.45924 -54.6867,30.45758 -64.10741,60.2903 l -1.933,6.12124 -2.33364,4.6e-4 c -4.55224,0.001 -11.02265,4.15585 -14.43269,9.26792 -0.57666,0.86448 -0.9553,1.09511 -0.95266,0.58027 z m 195.86066,-32.99645 -2.17291,-5.79289 1.03489,-8.68344 1.03489,-8.68345 -2.42641,-3.72419 c -2.7061,-4.15348 -2.97169,-5.70922 -1.26586,-7.41504 1.00467,-1.00467 1.93423,-1.16054 6.92113,-1.16054 5.53212,0 5.80829,0.0606 6.96325,1.52893 0.66146,0.84091 1.20266,1.83919 1.20266,2.2184 0,0.37921 -1.15338,2.49824 -2.56306,4.70898 l -2.56305,4.01951 1.06924,8.63949 1.06925,8.63949 -2.14751,5.57202 c -1.31708,3.41736 -2.50251,5.64038 -3.06555,5.74881 -0.68179,0.1313 -1.47726,-1.31404 -3.09096,-5.61608 z m -3.61136,-47.35684 c -21.0439,-4.57443 -31.84835,-27.78587 -21.81838,-46.87294 5.44078,-10.35381 16.9902,-17.24525 28.90147,-17.24525 3.93374,0 11.21191,1.89313 14.97147,3.89423 1.65175,0.87917 4.85995,3.43082 7.12934,5.67032 6.65004,6.56245 9.7299,13.96678 9.65875,23.22075 -0.11807,15.35794 -10.67497,28.08444 -25.98725,31.32799 -4.89054,1.03595 -8.10658,1.03717 -12.8554,0.005 z"
       id="path3433"
       inkscape:connector-curvature="0" />
  </g>
</svg>
