<?xml version="1.0" encoding="UTF-8" standalone="no"?>
<!-- Created with Inkscape (http://www.inkscape.org/) -->

<svg
   xmlns:dc="http://purl.org/dc/elements/1.1/"
   xmlns:cc="http://creativecommons.org/ns#"
   xmlns:rdf="http://www.w3.org/1999/02/22-rdf-syntax-ns#"
   xmlns:svg="http://www.w3.org/2000/svg"
   xmlns="http://www.w3.org/2000/svg"
   xmlns:sodipodi="http://sodipodi.sourceforge.net/DTD/sodipodi-0.dtd"
   xmlns:inkscape="http://www.inkscape.org/namespaces/inkscape"
   id="svg2"
   version="1.1"
   inkscape:version="0.91 r13725"
   width="512"
   height="512"
   viewBox="0 0 512 511.99999"
   sodipodi:docname="Herramientas Web.svg">
  <metadata
     id="metadata8">
    <rdf:RDF>
      <cc:Work
         rdf:about="">
        <dc:format>image/svg+xml</dc:format>
        <dc:type
           rdf:resource="http://purl.org/dc/dcmitype/StillImage" />
        <dc:title></dc:title>
      </cc:Work>
    </rdf:RDF>
  </metadata>
  <defs
     id="defs6" />
  <sodipodi:namedview
     pagecolor="#ffffff"
     bordercolor="#666666"
     borderopacity="1"
     objecttolerance="10"
     gridtolerance="10"
     guidetolerance="10"
     inkscape:pageopacity="0"
     inkscape:pageshadow="2"
     inkscape:window-width="1366"
     inkscape:window-height="706"
     id="namedview4"
     showgrid="false"
     fit-margin-top="0"
     fit-margin-left="0"
     fit-margin-right="0"
     fit-margin-bottom="0"
     inkscape:zoom="0.79434891"
     inkscape:cx="358.91734"
     inkscape:cy="294.70457"
     inkscape:window-x="-8"
     inkscape:window-y="-8"
     inkscape:window-maximized="1"
     inkscape:current-layer="svg2"
     showguides="true"
     inkscape:guide-bbox="true">
    <sodipodi:guide
       position="556.43055,212.75285"
       orientation="1,0"
       id="guide3366" />
  </sodipodi:namedview>
  <path
    style="fill:#649500"
     d="M 169.5,366.44932 C 165.16692,364.22737 68.23485,267.20897 65.93276,262.78984 c -2.350473,-4.51201 -2.461445,-8.82923 -0.336459,-13.0895 2.201613,-4.4139 99.016979,-101.37289 103.613859,-103.76758 4.86137,-2.53247 9.37043,-2.42058 14.26946,0.35407 7.2894,4.1285 10.38472,13.07522 6.92388,20.01283 -0.87807,1.76019 -21.01363,22.66284 -44.74569,46.45034 l -43.14919,43.25 43.14919,43.25 c 23.73206,23.7875 43.86762,44.69015 44.74569,46.45034 6.16555,12.35946 -8.62803,27.04368 -20.9035,20.74898 z m 161.5,0.82915 c -5.81212,-2.18395 -11,-9.3943 -11,-15.28829 0,-1.69923 0.71842,-4.52965 1.5965,-6.28984 0.87807,-1.76019 21.01363,-22.66284 44.74569,-46.45034 L 409.49138,256 366.34219,212.75 c -23.73206,-23.7875 -43.86762,-44.69015 -44.74569,-46.45034 -3.46084,-6.93761 -0.36552,-15.88433 6.92388,-20.01283 4.89903,-2.77465 9.40809,-2.88654 14.26946,-0.35407 4.59688,2.39469 101.41225,99.35368 103.61386,103.76758 2.03099,4.07182 2.03099,8.5275 0,12.59932 -2.20161,4.4139 -99.01698,101.37289 -103.61386,103.76758 -3.57616,1.86295 -8.66429,2.38568 -11.78984,1.21123 z M 175.62477,278.58379 c -4.68137,-1.73257 -10.12185,-6.76826 -12.68591,-11.74202 -6.73381,-13.06226 0.34909,-29.25324 14.61081,-33.39923 20.888,-6.07231 38.27499,16.74947 26.84531,35.23655 -5.78767,9.36134 -18.45506,13.72233 -28.77021,9.9047 z m 72,0 c -4.68137,-1.73257 -10.12185,-6.76826 -12.68591,-11.74202 -6.73381,-13.06226 0.34909,-29.25324 14.61081,-33.39923 20.888,-6.07231 38.27499,16.74947 26.84531,35.23655 -5.78767,9.36134 -18.45506,13.72233 -28.77021,9.9047 z m 72,0 c -4.68137,-1.73257 -10.12185,-6.76826 -12.68591,-11.74202 -6.73381,-13.06226 0.34909,-29.25324 14.61081,-33.39923 20.888,-6.07231 38.27499,16.74947 26.84531,35.23655 -5.78767,9.36134 -18.45506,13.72233 -28.77021,9.9047 z"
     id="path3364"
     inkscape:connector-curvature="0" />
</svg>
