<?xml version="1.0" encoding="UTF-8" standalone="no"?>
<!-- Created with Inkscape (http://www.inkscape.org/) -->

<svg
   xmlns:dc="http://purl.org/dc/elements/1.1/"
   xmlns:cc="http://creativecommons.org/ns#"
   xmlns:rdf="http://www.w3.org/1999/02/22-rdf-syntax-ns#"
   xmlns:svg="http://www.w3.org/2000/svg"
   xmlns="http://www.w3.org/2000/svg"
   xmlns:sodipodi="http://sodipodi.sourceforge.net/DTD/sodipodi-0.dtd"
   xmlns:inkscape="http://www.inkscape.org/namespaces/inkscape"
   width="512"
   height="512"
   viewBox="0 0 511.99999 511.99999"
   id="svg3401"
   version="1.1"
   inkscape:version="0.91 r13725"
   sodipodi:docname="Tienda Online.svg">
  <defs
     id="defs3403" />
  <sodipodi:namedview
     id="base"
     pagecolor="#ffffff"
     bordercolor="#666666"
     borderopacity="1.0"
     inkscape:pageopacity="0.0"
     inkscape:pageshadow="2"
     inkscape:zoom="0.7"
     inkscape:cx="31.598464"
     inkscape:cy="284.11529"
     inkscape:document-units="px"
     inkscape:current-layer="layer1"
     showgrid="false"
     fit-margin-top="0"
     fit-margin-left="0"
     fit-margin-right="0"
     fit-margin-bottom="0"
     units="px"
     inkscape:window-width="1366"
     inkscape:window-height="706"
     inkscape:window-x="-8"
     inkscape:window-y="-8"
     inkscape:window-maximized="1">
    <inkscape:grid
       type="xygrid"
       id="grid3448" />
  </sodipodi:namedview>
  <metadata
     id="metadata3406">
    <rdf:RDF>
      <cc:Work
         rdf:about="">
        <dc:format>image/svg+xml</dc:format>
        <dc:type
           rdf:resource="http://purl.org/dc/dcmitype/StillImage" />
        <dc:title></dc:title>
      </cc:Work>
    </rdf:RDF>
  </metadata>
  <g
     inkscape:label="Capa 1"
     inkscape:groupmode="layer"
     id="layer1"
     transform="translate(-62.879265,-366.0543)"
     style="fill:#649500">
    <path
       d="m 274.34932,864.57269 c -10.58969,-2.84939 -19.15276,-10.75126 -23.12858,-21.34273 -2.80379,-7.46917 -2.28851,-18.42854 1.22123,-25.97448 3.22114,-6.92542 9.86046,-13.56659 16.79175,-16.79643 7.39945,-3.448 20.13902,-3.62027 27.28301,-0.36895 13.01516,5.92338 20.72977,17.74567 20.68567,31.69987 -0.0492,15.56124 -10.40608,28.97372 -25.33863,32.81428 -6.88928,1.77187 -10.83849,1.76476 -17.51445,-0.0316 z m 165.48629,0.45794 c -18.40282,-4.33721 -30.28718,-24.37575 -25.07994,-42.28799 6.01272,-20.68305 27.56039,-30.74364 47.08234,-21.98271 20.83996,9.35242 26.40698,36.83173 10.93188,53.96081 -7.9969,8.85161 -21.36526,13.0365 -32.93428,10.30989 z M 226.99522,780.10142 c -3.09063,-1.70936 -6.27879,-4.89332 -7.76969,-7.75945 -0.76532,-1.47125 -14.83142,-67.45445 -31.25802,-146.62932 -16.42659,-79.17488 -30.05613,-144.14392 -30.28785,-144.37564 -0.23172,-0.23172 -11.90662,-3.80418 -25.94423,-7.9388 -14.0376,-4.13462 -26.63597,-8.34851 -27.99638,-9.3642 -7.938474,-5.92693 -9.577817,-16.33027 -3.842517,-24.38475 2.543147,-3.57151 8.412407,-6.42254 13.221727,-6.42254 3.37833,0 50.42485,13.12915 64.15004,17.90219 5.39571,1.8764 10.55549,7.09229 11.92594,12.05563 0.516,1.86882 3.59715,16.38695 6.847,32.26249 l 5.90881,28.86463 146.95055,13.6614 c 181.00619,16.8274 171.10154,15.802 176.95388,18.31961 5.32717,2.29169 11.83709,8.77463 13.99341,13.93542 0.78401,1.87642 1.42548,5.6362 1.42548,8.35508 0,5.68266 -19.40781,105.63815 -21.74,111.96689 -2.03589,5.5247 -7.15955,11.07513 -13.13443,14.22847 l -4.82745,2.54776 -130.70665,0.25157 -130.70664,0.25156 3.98082,19.29293 3.98082,19.29293 122.91226,0.47669 c 134.51904,0.52172 125.35321,0.11023 130.71423,5.86811 6.98945,7.50685 4.89598,21.23084 -4.00783,26.27369 l -3.79413,2.14887 -132.52119,-0.0134 c -95.01871,-0.01 -133.06078,-0.31175 -134.42796,-1.06791 z M 455.80877,530.44279 c -9.43855,-0.93923 -22.66625,-2.23171 -29.39487,-2.87219 -11.74173,-1.11766 -12.21232,-1.24571 -11.69837,-3.18321 0.29451,-1.1103 0.8149,-7.59605 1.15641,-14.41279 0.96929,-19.3473 -2.28945,-28.85209 -13.91693,-40.5917 -7.63782,-7.71147 -16.02467,-11.94773 -26.74818,-13.51069 -13.11175,-1.91106 -27.50335,2.59785 -37.52427,11.75641 -10.30211,9.41554 -14.47905,18.73636 -16.36203,36.51172 -0.71547,6.75408 -1.5319,12.51119 -1.81429,12.79357 -0.71232,0.71233 -65.87724,-5.41842 -68.60109,-6.45403 -1.21455,-0.46177 -3.17225,-2.05144 -4.35044,-3.5326 -2.0146,-2.53262 -2.10527,-3.27781 -1.52222,-12.51147 0.83845,-13.27835 1.29985,-15.09233 4.70485,-18.49733 l 2.93635,-2.93636 10.57113,0.60376 10.57114,0.60376 1.73547,-4.99888 c 2.33377,-6.72221 9.36606,-20.03414 13.0218,-24.64989 1.63104,-2.05935 2.75984,-4.28025 2.50846,-4.93534 -0.25138,-0.65509 -2.6799,-3.85131 -5.39671,-7.10272 -9.27887,-11.1047 -8.68464,-15.10753 3.78326,-25.48456 4.63208,-3.85529 9.34714,-7.30325 10.47791,-7.66214 5.45769,-1.7322 9.62126,1.0074 19.25684,12.67081 l 2.58716,3.13165 4.56228,-2.30546 c 5.9293,-2.99624 18.66185,-6.99033 26.10576,-8.18914 3.23435,-0.52088 6.01608,-1.08249 6.18161,-1.24802 0.16554,-0.16554 0.69674,-4.24653 1.18043,-9.06886 0.96798,-9.65038 2.37793,-12.69606 6.97892,-15.07532 2.5767,-1.33246 4.33754,-1.40452 13.16529,-0.53878 12.38283,1.21438 14.7448,2.04515 17.24472,6.06543 1.70465,2.74133 1.87007,4.11104 1.35582,11.2261 -0.32214,4.45709 -0.78286,8.81473 -1.02382,9.68362 -0.33303,1.20094 0.77094,1.97586 4.60331,3.23121 7.06505,2.31427 15.33559,6.54709 23.21216,11.87986 l 6.73006,4.55653 5.18731,-4.32955 c 7.4302,-6.20157 10.44734,-7.85305 14.35429,-7.85709 4.39675,-0.005 6.85376,1.95681 14.63605,11.68347 5.56092,6.95027 6.22876,8.23791 6.22876,12.00932 0,3.78225 -0.47394,4.68795 -4.5286,8.65416 -2.49074,2.43639 -5.97084,5.6054 -7.73357,7.04224 l -3.20496,2.61243 3.81621,9.26753 c 3.7294,9.05672 6.88397,20.66096 6.88397,25.32302 0,2.67854 1.53813,3.48901 6.62158,3.48901 7.80026,0 13.75585,1.76522 16.63495,4.93056 l 2.75865,3.03292 -0.5753,10.73493 c -0.91469,17.06799 -3.26125,20.47308 -13.973,20.27617 -3.42278,-0.0629 -13.9457,-0.88284 -23.38426,-1.82207 z"
       id="path3474"
       inkscape:connector-curvature="0" />
  </g>
</svg>
