<?xml version="1.0" encoding="UTF-8" standalone="no"?>
<!-- Created with Inkscape (http://www.inkscape.org/) -->

<svg
   xmlns:dc="http://purl.org/dc/elements/1.1/"
   xmlns:cc="http://creativecommons.org/ns#"
   xmlns:rdf="http://www.w3.org/1999/02/22-rdf-syntax-ns#"
   xmlns:svg="http://www.w3.org/2000/svg"
   xmlns="http://www.w3.org/2000/svg"
   xmlns:sodipodi="http://sodipodi.sourceforge.net/DTD/sodipodi-0.dtd"
   xmlns:inkscape="http://www.inkscape.org/namespaces/inkscape"
   width="512"
   height="512"
   viewBox="0 0 511.99999 511.99999"
   id="svg3401"
   version="1.1"
   inkscape:version="0.91 r13725"
   sodipodi:docname="Responsive.svg">
  <defs
     id="defs3403" />
  <sodipodi:namedview
     id="base"
     pagecolor="#ffffff"
     bordercolor="#666666"
     borderopacity="1.0"
     inkscape:pageopacity="0.0"
     inkscape:pageshadow="2"
     inkscape:zoom="0.7"
     inkscape:cx="31.598464"
     inkscape:cy="284.11529"
     inkscape:document-units="px"
     inkscape:current-layer="layer1"
     showgrid="false"
     fit-margin-top="0"
     fit-margin-left="0"
     fit-margin-right="0"
     fit-margin-bottom="0"
     units="px"
     inkscape:window-width="1366"
     inkscape:window-height="706"
     inkscape:window-x="-8"
     inkscape:window-y="-8"
     inkscape:window-maximized="1">
    <inkscape:grid
       type="xygrid"
       id="grid3448" />
  </sodipodi:namedview>
  <metadata
     id="metadata3406">
    <rdf:RDF>
      <cc:Work
         rdf:about="">
        <dc:format>image/svg+xml</dc:format>
        <dc:type
           rdf:resource="http://purl.org/dc/dcmitype/StillImage" />
        <dc:title></dc:title>
      </cc:Work>
    </rdf:RDF>
  </metadata>
  <g
     inkscape:label="Capa 1"
     inkscape:groupmode="layer"
     id="layer1"
     transform="translate(-62.879265,-366.0543)"
     style="fill:#649500">
    <path
       d="m 416.05447,681.81436 0,-54.95178 34.33524,0 34.33524,0 0,54.95178 0,54.95178 -34.33524,0 -34.33524,0 0,-54.95178 z m 37.92944,48.47232 c 1.86302,-3.01477 -1.21243,-6.58038 -4.28306,-4.9657 -1.78317,0.93768 -2.46015,4.06638 -1.22213,5.64807 1.25684,1.60572 4.32635,1.22525 5.5052,-0.68237 z m 20.86705,-48.98749 0.16744,-37.95108 -24.6232,0 -24.62321,0 0,38.13106 0,38.13106 24.45576,-0.17998 24.45576,-0.17999 0.16745,-37.95107 z m -14.09589,-44.13315 c 0,-0.42522 -3.45512,-0.6869 -9.06969,-0.6869 -5.61457,0 -9.06968,0.26168 -9.06968,0.6869 0,0.42522 3.45512,0.6869 9.06968,0.6869 5.61457,0 9.06969,-0.26168 9.06969,-0.6869 z m -7.99158,-3.82411 c 0.53994,-1.49191 -0.83081,-2.89493 -1.81197,-1.85462 -0.82925,0.87925 -0.31552,2.93114 0.73386,2.93114 0.37867,0 0.86382,-0.48443 1.07811,-1.07652 z m -299.72992,20.99654 0,-78.30628 49.23544,0 49.23544,0 0,78.30628 0,78.30628 -49.23544,0 -49.23544,0 0,-78.30628 z m 53.3721,69.97441 c 3.68396,-1.77973 3.4623,-7.2103 -0.36288,-8.89029 -5.31119,-2.33261 -8.89421,6.0302 -3.76302,8.78294 1.98331,1.064 2.13738,1.06801 4.1259,0.10735 z m 30.84641,-75.46959 0,-57.69937 -34.98307,0 -34.98308,0 0,57.69937 0,57.69937 34.98308,0 34.98307,0 0,-57.69937 z m 20.73072,49.80005 0,-4.46483 22.99813,0 22.99813,0 0,-5.83863 0,-5.83862 -22.99813,0 -22.99813,0 0,-13.0539 0,-13.0539 75.6347,0.17458 75.6347,0.17457 0.17627,12.87932 0.17624,12.87933 -30.1386,0 -30.13861,0 0,5.83862 0,5.83863 26.88514,0 26.88514,0 0,4.46483 0,4.46483 -72.55748,0 -72.55749,0 0,-4.46483 z m 180.09805,-124.67185 0,-46.70901 -110.45582,0 -110.45582,0 0,21.31268 0,21.31267 -9.23165,-0.19058 -9.23164,-0.19059 -0.16856,-31.0821 -0.16856,-31.0821 129.24963,0 129.24963,0 0,56.66902 0,56.66903 -9.39361,0 -9.3936,0 0,-46.70902 z"
       id="path3461"
       inkscape:connector-curvature="0" />
  </g>
</svg>
