<?xml version="1.0" encoding="UTF-8" standalone="no"?>
<!-- Created with Inkscape (http://www.inkscape.org/) -->

<svg
   xmlns:dc="http://purl.org/dc/elements/1.1/"
   xmlns:cc="http://creativecommons.org/ns#"
   xmlns:rdf="http://www.w3.org/1999/02/22-rdf-syntax-ns#"
   xmlns:svg="http://www.w3.org/2000/svg"
   xmlns="http://www.w3.org/2000/svg"
   xmlns:sodipodi="http://sodipodi.sourceforge.net/DTD/sodipodi-0.dtd"
   xmlns:inkscape="http://www.inkscape.org/namespaces/inkscape"
   width="512"
   height="512"
   viewBox="0 0 511.99999 511.99999"
   id="svg3401"
   version="1.1"
   inkscape:version="0.91 r13725"
   sodipodi:docname="SEO.svg">
  <defs
     id="defs3403" />
  <sodipodi:namedview
     id="base"
     pagecolor="#ffffff"
     bordercolor="#666666"
     borderopacity="1.0"
     inkscape:pageopacity="0.0"
     inkscape:pageshadow="2"
     inkscape:zoom="0.7"
     inkscape:cx="237.45845"
     inkscape:cy="284.11529"
     inkscape:document-units="px"
     inkscape:current-layer="layer1"
     showgrid="false"
     fit-margin-top="0"
     fit-margin-left="0"
     fit-margin-right="0"
     fit-margin-bottom="0"
     units="px"
     inkscape:window-width="1366"
     inkscape:window-height="706"
     inkscape:window-x="-8"
     inkscape:window-y="-8"
     inkscape:window-maximized="1">
    <inkscape:grid
       type="xygrid"
       id="grid3448" />
  </sodipodi:namedview>
  <metadata
     id="metadata3406">
    <rdf:RDF>
      <cc:Work
         rdf:about="">
        <dc:format>image/svg+xml</dc:format>
        <dc:type
           rdf:resource="http://purl.org/dc/dcmitype/StillImage" />
        <dc:title></dc:title>
      </cc:Work>
    </rdf:RDF>
  </metadata>
  <g
     inkscape:label="Capa 1"
     inkscape:groupmode="layer"
     id="layer1"
     transform="translate(-62.879265,-366.0543)"
     style="fill:#649500">
    <path
       d="m 495.20952,827.46709 c -1.77578,-0.58826 -4.31838,-1.64905 -5.65022,-2.35734 -1.33184,-0.70829 -19.88722,-18.83996 -41.23417,-40.29261 -36.67042,-36.852 -38.88683,-39.24384 -40.15695,-43.33518 -1.52779,-4.92143 -1.71443,-9.72609 -0.53723,-13.83074 0.80035,-2.79064 0.75114,-2.87005 -5.89985,-9.52105 l -6.70693,-6.70693 -5.60239,4.61152 c -24.75889,20.37985 -57.09646,33.75138 -90.75934,37.52883 -10.41026,1.16818 -33.75536,0.48441 -43.99103,-1.28847 -73.92598,-12.8045 -128.75769,-68.41646 -140.52986,-142.52959 -1.87451,-11.80124 -1.87475,-36.82578 -4.6e-4,-49.17984 4.75271,-31.32672 17.6816,-60.55137 36.959,-83.5426 27.77662,-33.12786 63.53101,-53.18875 106.62978,-59.82728 12.08295,-1.86115 37.18371,-1.85351 48.9465,0.0149 51.01492,8.10324 94.08148,36.69806 119.96052,79.64995 15.51246,25.74631 23.22343,51.71947 24.32168,81.92368 1.08737,29.90526 -4.70827,56.41663 -18.20453,83.27414 -4.64767,9.24884 -13.28348,22.52977 -19.78844,30.43246 l -4.61152,5.60239 6.70693,6.70693 c 6.651,6.65099 6.73041,6.7002 9.52105,5.89985 4.10454,-1.17716 8.90923,-0.99058 13.83074,0.53711 4.09407,1.27084 6.47546,3.48098 43.64379,40.50533 43.80514,43.63544 42.95097,42.58194 42.96637,52.99353 0.01,6.44797 -1.75342,11.18157 -5.94047,15.95036 -5.33758,6.07916 -16.45677,9.23735 -23.87297,6.78065 z M 301.89114,724.3877 c 30.6277,-4.5786 57.78513,-18.21978 79.49638,-39.93102 21.89336,-21.89336 35.05128,-48.16104 40.02323,-79.89996 1.33941,-8.55025 1.35414,-30.55316 0.0262,-39.14799 -4.89369,-31.6735 -18.23655,-58.33059 -40.14227,-80.19831 -26.66056,-26.61432 -61.26619,-40.87791 -99.17598,-40.87791 -23.21552,0 -41.32385,4.05445 -61.34866,13.73597 -37.93833,18.34227 -65.49234,52.22428 -75.80539,93.21469 -4.96629,19.73909 -4.96153,47.03372 0.0117,66.99552 9.06278,36.37682 31.43311,67.06611 63.2879,86.82308 18.51844,11.4855 39.36125,18.13454 64.16501,20.46921 4.85487,0.45696 23.49866,-0.29183 29.46188,-1.18328 z m -75.35637,-35.70128 c -0.77266,-0.56498 -3.16225,-5.95891 -5.31018,-11.98651 -5.02144,-14.09128 -5.32271,-15.5005 -3.66776,-17.15545 2.97743,-2.97744 4.70846,-0.74938 8.05219,10.36428 1.59799,5.31132 2.98649,9.73798 3.08553,9.83702 0.099,0.099 1.40524,-4.18152 2.90268,-9.51236 2.8724,-10.22567 4.3755,-12.41108 7.90194,-11.4889 1.97402,0.51622 3.23665,3.2689 5.87481,12.80773 0.98226,3.55157 2.05292,6.74148 2.37924,7.08869 0.32633,0.34721 1.04132,-0.92409 1.58887,-2.82511 4.14345,-14.38549 4.98158,-16.60111 6.42243,-16.9779 2.17711,-0.56933 4.15353,0.81068 4.15353,2.90015 0,1.82328 -6.16599,20.80695 -8.10975,24.96805 -1.39182,2.97954 -4.44508,3.72627 -6.56561,1.60574 -0.91212,-0.91213 -2.76483,-5.60791 -4.2615,-10.801 l -2.64782,-9.18732 -1.76754,6.05381 c -3.37317,11.55309 -4.23434,13.7415 -5.72043,14.53683 -1.95136,1.04433 -2.61921,1.00905 -4.31063,-0.22775 z m 46.40518,-0.36663 c -1.6775,-1.386 -9.7932,-23.76143 -9.7932,-27.00039 0,-0.77792 0.70014,-1.78911 1.55588,-2.24709 3.35131,-1.79356 4.52362,0.0544 8.17303,12.88351 0.94714,3.32959 1.99238,6.33981 2.32274,6.68939 0.33036,0.34956 1.6586,-3.28273 2.95164,-8.07175 2.23139,-8.26445 4.47394,-12.33962 6.79043,-12.33962 2.34705,0 4.61318,4.06189 6.86744,12.30942 1.30442,4.77242 2.56306,8.67576 2.79696,8.67409 0.23391,-0.002 1.48353,-3.72477 2.77696,-8.27355 3.53956,-12.44816 4.37628,-13.70193 7.88942,-11.82175 2.17816,1.16571 1.81713,3.21362 -3.03997,17.24443 -3.99634,11.5443 -5.75634,14.04262 -9.13683,12.9697 -1.70453,-0.541 -3.499,-4.69233 -6.20447,-14.35346 -0.83917,-2.99663 -1.71191,-5.44342 -1.93943,-5.43729 -0.22752,0.006 -1.61598,4.09245 -3.08546,9.08072 -1.4695,4.98827 -2.92241,9.30117 -3.2287,9.58424 -1.51011,1.39556 -4.08005,1.44492 -5.69644,0.1094 z m 46.38749,-0.46864 c -1.90925,-1.90925 -9.36455,-22.73524 -9.36455,-26.15937 0,-2.01897 2.47214,-3.69759 4.3719,-2.96859 1.0898,0.4182 4.61718,10.2477 6.5802,18.33657 0.76423,3.14913 1.51704,1.99485 3.59197,-5.50753 3.47699,-12.57184 5.19107,-14.85289 9.19142,-12.23176 1.42941,0.93659 2.49705,3.47871 4.5896,10.92814 1.49979,5.33919 2.9585,9.26964 3.24158,8.73433 0.28309,-0.53532 1.70202,-5.07435 3.15319,-10.08672 2.80097,-9.67461 4.15444,-11.51362 7.25323,-9.8552 0.8879,0.47518 1.61435,1.4633 1.61435,2.19582 0,0.73251 -1.8861,6.93208 -4.19132,13.77682 -4.57274,13.57745 -6.11934,15.77788 -9.88409,14.06255 -1.9472,-0.88721 -2.52392,-2.26239 -6.16436,-14.69887 l -1.77208,-6.05381 -2.22378,7.66816 c -2.9809,10.27887 -3.66227,11.86179 -5.53813,12.86572 -2.16644,1.15944 -2.3176,1.12526 -4.44913,-1.00626 z m -73.86355,-55.81302 -8.56268,-8.43786 -7.68077,7.56938 c -10.66933,10.5146 -13.09456,10.84512 -21.06832,2.87136 -4.45697,-4.45697 -4.73631,-4.96407 -4.73631,-8.59798 l 0,-3.86165 37.0755,-37.16704 37.07551,-37.16704 -1.5383,-2.82511 c -3.28637,-6.03543 -5.06312,-13.77085 -5.00581,-21.79372 0.0692,-9.68372 1.06763,-14.03748 5.16883,-22.53863 6.26839,-12.99336 19.46048,-23.39004 33.36776,-26.29711 17.50189,-3.65845 33.40293,1.07854 46.0156,13.70826 10.22895,10.24278 14.47062,20.57721 14.41775,35.12748 -0.0252,6.94139 -0.41872,9.65551 -2.17411,14.99602 -4.51376,13.7324 -13.8973,24.05741 -27.44753,30.20137 -12.69007,5.75395 -30.00065,5.26544 -42.50234,-1.19943 l -2.67098,-1.38122 -20.21149,20.21148 -20.21149,20.21149 8.2219,8.53626 c 7.98434,8.28964 8.22189,8.64304 8.22189,12.23201 0,3.4669 -0.32026,4.016 -5.1719,8.86765 -4.73215,4.73214 -5.46303,5.1719 -8.59596,5.1719 -3.26286,0 -3.8272,-0.39725 -11.98675,-8.43787 z m 80.67507,-77.12884 c 9.21994,-1.74853 18.41679,-8.03383 22.86719,-15.62785 8.99268,-15.34486 4.16594,-35.17294 -10.93861,-44.93548 -13.54689,-8.75578 -32.70408,-5.77078 -42.91176,6.68636 -13.80933,16.85246 -8.27547,42.25722 11.14111,51.14642 7.1672,3.28126 12.82945,4.06046 19.84207,2.73055 z"
       id="path3487"
       inkscape:connector-curvature="0" />
  </g>
</svg>
