<?xml version="1.0" encoding="UTF-8" standalone="no"?>
<!-- Created with Inkscape (http://www.inkscape.org/) -->

<svg
   xmlns:dc="http://purl.org/dc/elements/1.1/"
   xmlns:cc="http://creativecommons.org/ns#"
   xmlns:rdf="http://www.w3.org/1999/02/22-rdf-syntax-ns#"
   xmlns:svg="http://www.w3.org/2000/svg"
   xmlns="http://www.w3.org/2000/svg"
   xmlns:sodipodi="http://sodipodi.sourceforge.net/DTD/sodipodi-0.dtd"
   xmlns:inkscape="http://www.inkscape.org/namespaces/inkscape"
   width="512"
   height="512"
   viewBox="0 0 512 512"
   id="svg3401"
   version="1.1"
   inkscape:version="0.91 r13725"
   sodipodi:docname="Usabilidad-Flexibilidad.svg">
  <defs
     id="defs3403" />
  <sodipodi:namedview
     id="base"
     pagecolor="#ffffff"
     bordercolor="#666666"
     borderopacity="1.0"
     inkscape:pageopacity="0.0"
     inkscape:pageshadow="2"
     inkscape:zoom="0.70710678"
     inkscape:cx="256"
     inkscape:cy="269.61616"
     inkscape:document-units="px"
     inkscape:current-layer="layer1"
     showgrid="false"
     fit-margin-top="0"
     fit-margin-left="0"
     fit-margin-right="0"
     fit-margin-bottom="0"
     units="px"
     inkscape:window-width="1366"
     inkscape:window-height="706"
     inkscape:window-x="-8"
     inkscape:window-y="-8"
     inkscape:window-maximized="1">
    <inkscape:grid
       type="xygrid"
       id="grid3448" />
  </sodipodi:namedview>
  <metadata
     id="metadata3406">
    <rdf:RDF>
      <cc:Work
         rdf:about="">
        <dc:format>image/svg+xml</dc:format>
        <dc:type
           rdf:resource="http://purl.org/dc/dcmitype/StillImage" />
        <dc:title></dc:title>
      </cc:Work>
    </rdf:RDF>
  </metadata>
  <g
     inkscape:label="Capa 1"
     inkscape:groupmode="layer"
     id="layer1"
     transform="translate(-62.879265,-366.0543)"
     style="fill:#649500">
    <path
       d="m 265.01081,768.85077 0,-24.80123 -27.8176,0 -27.81759,0 -0.002,-35.02336 -0.002,-35.02336 -20.5993,-4.69212 c -11.32962,-2.58067 -20.53936,-4.99376 -20.46609,-5.36243 0.0733,-0.36867 8.46472,-15.52385 18.64767,-33.67818 l 18.51441,-33.00788 -0.82526,-7.47317 c -0.96729,-8.75948 -0.54962,-20.6642 1.11306,-31.72486 l 1.15566,-7.68786 6.7616,-0.18982 6.7616,-0.18983 0.19668,-4.07807 0.19667,-4.07807 -2.75411,-1.9086 c -8.19049,-5.67602 -15.82983,-17.61371 -18.46311,-28.85159 -1.61631,-6.89782 -1.04453,-19.02575 1.22363,-25.95434 5.20789,-15.90858 18.09469,-28.16001 34.47474,-32.77499 6.74052,-1.8991 18.48142,-2.03198 25.00856,-0.28304 19.74194,5.28983 33.95359,21.27329 37.11914,41.74691 l 0.78025,5.04632 6.26412,-22.02381 c 3.44526,-12.1131 6.38046,-22.14987 6.52265,-22.30392 0.34306,-0.37168 54.5515,22.84488 54.5515,23.36349 0,0.22135 -3.61582,2.2066 -8.03515,4.41167 l -8.03513,4.00921 7.00565,15.08183 7.00566,15.08183 8.02093,0 c 8.90301,0 10.2341,-0.50211 13.30926,-5.02046 1.43235,-2.10455 1.50819,-2.85142 1.50819,-14.85262 l 0,-12.63664 -5.36243,0 -5.36243,0 0,-16.75759 0,-16.75759 16.42243,0 16.42244,0 0,16.75759 0,16.75759 -5.36243,0 -5.36243,0 0,10.9369 c 0,15.87002 -0.93648,19.90126 -5.89934,25.39455 -4.65392,5.15134 -8.78597,6.96913 -17.67711,7.77663 l -5.14311,0.4671 4.95121,10.72486 4.95122,10.72485 13.01455,0.18148 13.01453,0.18148 16.22579,-37.84656 16.22578,-37.84656 15.68751,-11.7698 c 8.62813,-6.47339 15.8414,-11.76981 16.02948,-11.76981 0.18808,0 0.34197,8.89288 0.34197,19.76196 l 0,19.76195 -12.13311,29.00263 c -6.67321,15.95144 -12.28091,29.36703 -12.46155,29.81241 -0.23757,0.58575 1.21839,0.86392 5.2625,1.00546 l 5.59094,0.19567 1.10371,7.70849 c 2.41463,16.86414 2.19816,48.67681 -0.43558,64.01398 -3.97977,23.17554 -12.76848,43.82422 -26.63686,62.58206 -7.37377,9.97348 -19.33522,22.0887 -28.05869,28.41945 l -3.91476,2.84098 -0.0195,38.71003 -0.0195,38.71003 -66.36004,0 -66.36005,0 0,-24.80123 z m 121.35507,-21.95244 0.0302,-36.02881 6.34684,-4.62525 c 27.55219,-20.07858 45.91179,-49.7544 52.71176,-85.20142 1.43626,-7.487 1.54195,-9.73675 1.54275,-32.83888 4.6e-4,-13.64067 -0.21592,-25.32909 -0.48085,-25.97426 -0.45611,-1.11074 -6.58349,-1.17303 -115.38169,-1.17303 l -114.90001,0 -0.46076,4.30256 c -0.72564,6.77593 -0.59188,19.69036 0.28262,27.28777 l 0.80023,6.95212 -15.81583,28.15275 c -8.6987,15.48401 -15.80731,28.45438 -15.79691,28.82305 0.0104,0.36867 7.93273,2.48144 17.60518,4.69505 l 17.58624,4.02474 0.17378,33.67983 0.17378,33.67983 27.47624,0 27.47624,0 0,24.68951 c 0,13.57924 0.2011,24.89061 0.44688,25.13638 0.24577,0.24578 25.13079,0.44687 55.30004,0.44687 l 54.85317,0 0.0302,-36.02881 z M 251.60474,604.33971 C 240.67323,601.30593 233.36,592.76773 231.89908,581.33336 l -0.44962,-3.51909 5.6273,0 5.6273,0 0.41627,3.51478 c 1.05231,8.88508 9.99988,14.5907 19.8222,12.64008 6.93085,-1.37639 11.61494,-6.22426 12.53272,-12.97092 l 0.43313,-3.18394 5.4882,0 5.4882,0 -0.47089,3.99357 c -0.9381,7.95621 -6.77362,16.78104 -13.29185,20.1008 -6.39243,3.25568 -15.02974,4.23155 -21.5173,2.43107 z m -8.87016,-71.19785 0.17894,-16.85481 -3.00501,-1.76106 c -3.54073,-2.075 -5.9846,-5.0718 -7.39427,-9.06723 -1.28404,-3.63936 -1.28095,-5.61358 0.0156,-9.97961 2.84672,-9.58597 13.90884,-14.28457 22.98383,-9.76232 11.25923,5.61071 12.11041,21.26892 1.54343,28.3926 l -3.44147,2.32005 0,16.97828 0,16.97828 5.53,-0.19468 5.53001,-0.19469 0.19697,-7.37334 0.19698,-7.37334 3.36835,-2.00973 c 7.19988,-4.29583 14.04225,-13.18003 16.77112,-21.7758 1.82241,-5.74048 1.96068,-15.46598 0.30033,-21.1248 -3.67046,-12.50968 -12.7084,-22.16364 -24.90105,-26.59827 -5.51265,-2.00503 -15.81244,-2.42812 -21.73939,-0.893 -14.40448,3.73084 -25.28773,15.0211 -28.53071,29.5977 -3.43588,15.4436 3.62805,31.96687 17.44486,40.80538 l 3.71251,2.37487 0,7.37985 0,7.37985 5.53001,-0.19468 5.53,-0.19469 0.17894,-16.85481 z m 55.1211,11.19022 c 0,-7.25135 0.94899,-12.1987 3.02787,-15.78512 3.19318,-5.50877 9.61329,-10.14496 15.06026,-10.87555 1.48021,-0.19854 2.69128,-0.45962 2.69128,-0.58017 0,-0.66772 -6.67968,-14.35097 -7.00564,-14.35097 -0.21451,0 -3.64957,1.63473 -7.63346,3.63272 l -7.24344,3.63272 -0.81321,3.63381 c -1.84512,8.24489 -9.09471,19.32871 -16.50199,25.22973 l -3.70169,2.94896 0,4.2568 0,4.25681 11.06001,0 11.06001,0 0,-5.99974 z m 35.52609,5.58304 c 0,-0.22918 -2.16532,-5.20618 -4.81183,-11.06001 l -4.81183,-10.6433 -3.46784,0 c -4.0143,0 -7.09577,1.71958 -9.51529,5.30993 -1.35275,2.00733 -1.52414,3.07967 -1.52414,9.53587 l 0,7.27421 12.06546,0 c 6.63601,0 12.06547,-0.18751 12.06547,-0.4167 z m 32.52523,-1.76178 c -0.50684,-1.19817 -2.74722,-6.09976 -4.97861,-10.89243 l -4.05708,-8.71395 -10.40417,-0.1846 c -5.72228,-0.10153 -10.40416,-0.0683 -10.40416,0.0738 0,0.34739 7.72853,17.33103 9.04566,19.87809 l 1.04332,2.01756 10.33829,0 10.33829,0 -0.92154,-2.17848 z m 78.81307,-26.93426 c 6.59864,-15.82767 11.99754,-28.95705 11.99754,-29.17639 0,-0.77821 -11.58973,-6.13341 -12.11619,-5.59845 -0.5002,0.50827 -27.43171,62.97898 -27.43171,63.63098 0,0.16453 3.49938,0.21417 7.7764,0.1103 l 7.77641,-0.18885 11.99755,-28.77759 z m -95.19401,-8.59183 c -1.0438,-2.30417 -4.65083,-10.15686 -8.01561,-17.45042 -3.36478,-7.29357 -6.11777,-13.51593 -6.11777,-13.82748 0,-0.31155 0.90491,-0.94128 2.01091,-1.3994 1.106,-0.45812 2.01091,-1.03379 2.01091,-1.27927 0,-0.3305 -13.19367,-6.2366 -20.7719,-9.29846 -0.53489,-0.21611 -6.26226,19.2931 -5.79971,19.75565 0.16786,0.16785 1.23214,-0.17416 2.36508,-0.76003 2.0578,-1.06413 2.06084,-1.06299 2.99542,1.12361 0.51455,1.20385 2.81528,6.26091 5.11274,11.23791 2.29746,4.97701 4.88223,10.63269 5.74393,12.56819 l 1.56672,3.5191 10.39856,0 10.39855,0 -1.89783,-4.1894 z m -97.41859,-8.7129 c 2.94127,-2.74544 1.32515,-7.53502 -2.98287,-8.84006 -1.72496,-0.52255 -5.20553,1.07415 -5.81743,2.66874 -2.35414,6.13479 4.03748,10.617 8.8003,6.17132 z m 206.62105,-27.31591 c 0,-1.84334 -0.17803,-3.35152 -0.39562,-3.35152 -0.59224,0 -5.60626,3.62738 -5.6228,4.06779 -0.0183,0.4876 4.07475,2.5358 5.18055,2.59238 0.5643,0.0289 0.83787,-1.05144 0.83787,-3.30865 z m -60.99762,-9.38425 0,-5.36243 -5.69758,0 -5.69757,0 0,5.36243 0,5.36243 5.69757,0 5.69758,0 0,-5.36243 z"
       id="path3513"
       inkscape:connector-curvature="0" />
  </g>
</svg>
